<mxfile host="app.diagrams.net" modified="2024-01-15T08:34:13.840Z" agent="Mozilla/5.0 (Windows NT 10.0; Win64; x64) AppleWebKit/537.36 (KHTML, like Gecko) Chrome/120.0.0.0 Safari/537.36" etag="cZUsT5hDNxhDNPPEIWg3" version="22.1.18" type="github">
  <diagram id="C5RBs43oDa-KdzZeNtuy" name="Page-1">
    <mxGraphModel dx="2840" dy="1487" grid="1" gridSize="10" guides="1" tooltips="1" connect="1" arrows="1" fold="1" page="1" pageScale="1" pageWidth="827" pageHeight="1169" math="0" shadow="0">
      <root>
        <mxCell id="WIyWlLk6GJQsqaUBKTNV-0" />
        <mxCell id="WIyWlLk6GJQsqaUBKTNV-1" parent="WIyWlLk6GJQsqaUBKTNV-0" />
        <mxCell id="WIyWlLk6GJQsqaUBKTNV-2" value="" style="rounded=0;html=1;jettySize=auto;orthogonalLoop=1;fontSize=11;endArrow=block;endFill=0;endSize=8;strokeWidth=1;shadow=0;labelBackgroundColor=none;edgeStyle=orthogonalEdgeStyle;" parent="WIyWlLk6GJQsqaUBKTNV-1" source="WIyWlLk6GJQsqaUBKTNV-3" target="WIyWlLk6GJQsqaUBKTNV-6" edge="1">
          <mxGeometry relative="1" as="geometry" />
        </mxCell>
        <mxCell id="WIyWlLk6GJQsqaUBKTNV-3" value="获取InvocationInfo包含userid/tenantid/yhtAccessToken/language等信息" style="rounded=1;whiteSpace=wrap;html=1;fontSize=12;glass=0;strokeWidth=1;shadow=0;fillColor=#e1d5e7;strokeColor=#9673a6;" parent="WIyWlLk6GJQsqaUBKTNV-1" vertex="1">
          <mxGeometry x="71" y="150" width="230" height="50" as="geometry" />
        </mxCell>
        <mxCell id="WIyWlLk6GJQsqaUBKTNV-4" value="No" style="rounded=0;html=1;jettySize=auto;orthogonalLoop=1;fontSize=11;endArrow=block;endFill=0;endSize=8;strokeWidth=1;shadow=0;labelBackgroundColor=none;edgeStyle=orthogonalEdgeStyle;entryX=0.5;entryY=0;entryDx=0;entryDy=0;" parent="WIyWlLk6GJQsqaUBKTNV-1" source="WIyWlLk6GJQsqaUBKTNV-6" target="H9k1ACJFIDgV3ZDi_W-s-2" edge="1">
          <mxGeometry y="20" relative="1" as="geometry">
            <mxPoint as="offset" />
            <mxPoint x="186" y="390" as="targetPoint" />
          </mxGeometry>
        </mxCell>
        <mxCell id="WIyWlLk6GJQsqaUBKTNV-5" value="Yes" style="edgeStyle=orthogonalEdgeStyle;rounded=0;html=1;jettySize=auto;orthogonalLoop=1;fontSize=11;endArrow=block;endFill=0;endSize=8;strokeWidth=1;shadow=0;labelBackgroundColor=none;entryX=0.5;entryY=0;entryDx=0;entryDy=0;" parent="WIyWlLk6GJQsqaUBKTNV-1" source="WIyWlLk6GJQsqaUBKTNV-6" target="H9k1ACJFIDgV3ZDi_W-s-11" edge="1">
          <mxGeometry y="10" relative="1" as="geometry">
            <mxPoint as="offset" />
            <mxPoint x="286" y="290" as="targetPoint" />
          </mxGeometry>
        </mxCell>
        <mxCell id="WIyWlLk6GJQsqaUBKTNV-6" value="&lt;br&gt;InvocationInfo&lt;br&gt;为空？" style="rhombus;whiteSpace=wrap;html=1;shadow=0;fontFamily=Helvetica;fontSize=12;align=center;strokeWidth=1;spacing=6;spacingTop=-4;fillColor=#fff2cc;strokeColor=#d6b656;" parent="WIyWlLk6GJQsqaUBKTNV-1" vertex="1">
          <mxGeometry x="136" y="250" width="100" height="80" as="geometry" />
        </mxCell>
        <mxCell id="H9k1ACJFIDgV3ZDi_W-s-0" value="开始" style="rounded=1;whiteSpace=wrap;html=1;fontSize=12;glass=0;strokeWidth=1;shadow=0;fillColor=#d5e8d4;strokeColor=#82b366;" parent="WIyWlLk6GJQsqaUBKTNV-1" vertex="1">
          <mxGeometry x="126" y="60" width="120" height="40" as="geometry" />
        </mxCell>
        <mxCell id="H9k1ACJFIDgV3ZDi_W-s-1" value="" style="rounded=0;html=1;jettySize=auto;orthogonalLoop=1;fontSize=11;endArrow=block;endFill=0;endSize=8;strokeWidth=1;shadow=0;labelBackgroundColor=none;edgeStyle=orthogonalEdgeStyle;entryX=0.5;entryY=0;entryDx=0;entryDy=0;exitX=0.5;exitY=1;exitDx=0;exitDy=0;" parent="WIyWlLk6GJQsqaUBKTNV-1" source="H9k1ACJFIDgV3ZDi_W-s-0" target="WIyWlLk6GJQsqaUBKTNV-3" edge="1">
          <mxGeometry relative="1" as="geometry">
            <mxPoint x="185.71" y="100" as="sourcePoint" />
            <mxPoint x="185.71" y="150" as="targetPoint" />
          </mxGeometry>
        </mxCell>
        <mxCell id="H9k1ACJFIDgV3ZDi_W-s-2" value="获取SessionId" style="rounded=1;whiteSpace=wrap;html=1;fontSize=12;glass=0;strokeWidth=1;shadow=0;fillColor=#e1d5e7;strokeColor=#9673a6;" parent="WIyWlLk6GJQsqaUBKTNV-1" vertex="1">
          <mxGeometry x="126" y="380" width="120" height="40" as="geometry" />
        </mxCell>
        <mxCell id="H9k1ACJFIDgV3ZDi_W-s-8" value="No" style="rounded=0;html=1;jettySize=auto;orthogonalLoop=1;fontSize=11;endArrow=block;endFill=0;endSize=8;strokeWidth=1;shadow=0;labelBackgroundColor=none;edgeStyle=orthogonalEdgeStyle;entryX=0.5;entryY=0;entryDx=0;entryDy=0;" parent="WIyWlLk6GJQsqaUBKTNV-1" source="H9k1ACJFIDgV3ZDi_W-s-10" target="H9k1ACJFIDgV3ZDi_W-s-14" edge="1">
          <mxGeometry y="20" relative="1" as="geometry">
            <mxPoint as="offset" />
            <mxPoint x="208.5" y="600" as="targetPoint" />
          </mxGeometry>
        </mxCell>
        <mxCell id="H9k1ACJFIDgV3ZDi_W-s-9" value="Yes" style="edgeStyle=orthogonalEdgeStyle;rounded=0;html=1;jettySize=auto;orthogonalLoop=1;fontSize=11;endArrow=block;endFill=0;endSize=8;strokeWidth=1;shadow=0;labelBackgroundColor=none;" parent="WIyWlLk6GJQsqaUBKTNV-1" source="H9k1ACJFIDgV3ZDi_W-s-10" target="H9k1ACJFIDgV3ZDi_W-s-11" edge="1">
          <mxGeometry y="10" relative="1" as="geometry">
            <mxPoint as="offset" />
          </mxGeometry>
        </mxCell>
        <mxCell id="H9k1ACJFIDgV3ZDi_W-s-10" value="&lt;br&gt;SessionId&lt;br&gt;为空？" style="rhombus;whiteSpace=wrap;html=1;shadow=0;fontFamily=Helvetica;fontSize=12;align=center;strokeWidth=1;spacing=6;spacingTop=-4;fillColor=#fff2cc;strokeColor=#d6b656;" parent="WIyWlLk6GJQsqaUBKTNV-1" vertex="1">
          <mxGeometry x="136" y="470" width="100" height="80" as="geometry" />
        </mxCell>
        <mxCell id="H9k1ACJFIDgV3ZDi_W-s-11" value="签名校验失败" style="rounded=1;whiteSpace=wrap;html=1;fontSize=12;glass=0;strokeWidth=1;shadow=0;fillColor=#f8cecc;strokeColor=#b85450;" parent="WIyWlLk6GJQsqaUBKTNV-1" vertex="1">
          <mxGeometry x="286" y="490" width="120" height="40" as="geometry" />
        </mxCell>
        <mxCell id="H9k1ACJFIDgV3ZDi_W-s-13" value="" style="rounded=0;html=1;jettySize=auto;orthogonalLoop=1;fontSize=11;endArrow=block;endFill=0;endSize=8;strokeWidth=1;shadow=0;labelBackgroundColor=none;edgeStyle=orthogonalEdgeStyle;" parent="WIyWlLk6GJQsqaUBKTNV-1" edge="1">
          <mxGeometry relative="1" as="geometry">
            <mxPoint x="186" y="420" as="sourcePoint" />
            <mxPoint x="186" y="470" as="targetPoint" />
            <Array as="points">
              <mxPoint x="186" y="450" />
              <mxPoint x="186" y="450" />
            </Array>
          </mxGeometry>
        </mxCell>
        <mxCell id="H9k1ACJFIDgV3ZDi_W-s-14" value="填充clientIp/shopId/zone/outForwarded&lt;br&gt;等信息" style="rounded=1;whiteSpace=wrap;html=1;fontSize=12;glass=0;strokeWidth=1;shadow=0;fillColor=#e1d5e7;strokeColor=#9673a6;" parent="WIyWlLk6GJQsqaUBKTNV-1" vertex="1">
          <mxGeometry x="71" y="600" width="230" height="50" as="geometry" />
        </mxCell>
        <mxCell id="H9k1ACJFIDgV3ZDi_W-s-16" value="No" style="rounded=0;html=1;jettySize=auto;orthogonalLoop=1;fontSize=11;endArrow=block;endFill=0;endSize=8;strokeWidth=1;shadow=0;labelBackgroundColor=none;edgeStyle=orthogonalEdgeStyle;entryX=0.5;entryY=0;entryDx=0;entryDy=0;" parent="WIyWlLk6GJQsqaUBKTNV-1" source="H9k1ACJFIDgV3ZDi_W-s-18" target="H9k1ACJFIDgV3ZDi_W-s-20" edge="1">
          <mxGeometry y="20" relative="1" as="geometry">
            <mxPoint as="offset" />
            <mxPoint x="208.5" y="830" as="targetPoint" />
          </mxGeometry>
        </mxCell>
        <mxCell id="H9k1ACJFIDgV3ZDi_W-s-17" value="Yes" style="edgeStyle=orthogonalEdgeStyle;rounded=0;html=1;jettySize=auto;orthogonalLoop=1;fontSize=11;endArrow=block;endFill=0;endSize=8;strokeWidth=1;shadow=0;labelBackgroundColor=none;" parent="WIyWlLk6GJQsqaUBKTNV-1" source="H9k1ACJFIDgV3ZDi_W-s-18" target="H9k1ACJFIDgV3ZDi_W-s-19" edge="1">
          <mxGeometry y="10" relative="1" as="geometry">
            <mxPoint as="offset" />
          </mxGeometry>
        </mxCell>
        <mxCell id="H9k1ACJFIDgV3ZDi_W-s-18" value="&lt;br&gt;是否为内网？" style="rhombus;whiteSpace=wrap;html=1;shadow=0;fontFamily=Helvetica;fontSize=12;align=center;strokeWidth=1;spacing=6;spacingTop=-4;fillColor=#fff2cc;strokeColor=#d6b656;" parent="WIyWlLk6GJQsqaUBKTNV-1" vertex="1">
          <mxGeometry x="136" y="700" width="100" height="80" as="geometry" />
        </mxCell>
        <mxCell id="H9k1ACJFIDgV3ZDi_W-s-19" value="不校验，直接设置上下文" style="rounded=1;whiteSpace=wrap;html=1;fontSize=12;glass=0;strokeWidth=1;shadow=0;fillColor=#e1d5e7;strokeColor=#9673a6;" parent="WIyWlLk6GJQsqaUBKTNV-1" vertex="1">
          <mxGeometry x="286" y="720" width="120" height="40" as="geometry" />
        </mxCell>
        <mxCell id="H9k1ACJFIDgV3ZDi_W-s-20" value="获取checkYhtSession结果&lt;br&gt;(方法之一就是判断SessionId是否存在于CukooFilter)" style="rounded=1;whiteSpace=wrap;html=1;fontSize=12;glass=0;strokeWidth=1;shadow=0;fillColor=#e1d5e7;strokeColor=#9673a6;" parent="WIyWlLk6GJQsqaUBKTNV-1" vertex="1">
          <mxGeometry x="71" y="830" width="230" height="50" as="geometry" />
        </mxCell>
        <mxCell id="H9k1ACJFIDgV3ZDi_W-s-21" value="" style="rounded=0;html=1;jettySize=auto;orthogonalLoop=1;fontSize=11;endArrow=block;endFill=0;endSize=8;strokeWidth=1;shadow=0;labelBackgroundColor=none;edgeStyle=orthogonalEdgeStyle;" parent="WIyWlLk6GJQsqaUBKTNV-1" edge="1">
          <mxGeometry relative="1" as="geometry">
            <mxPoint x="185.66" y="650" as="sourcePoint" />
            <mxPoint x="185.66" y="700" as="targetPoint" />
            <Array as="points">
              <mxPoint x="185.66" y="680" />
              <mxPoint x="185.66" y="680" />
            </Array>
          </mxGeometry>
        </mxCell>
        <mxCell id="H9k1ACJFIDgV3ZDi_W-s-22" value="结束" style="rounded=1;whiteSpace=wrap;html=1;fontSize=12;glass=0;strokeWidth=1;shadow=0;fillColor=#d5e8d4;strokeColor=#82b366;" parent="WIyWlLk6GJQsqaUBKTNV-1" vertex="1">
          <mxGeometry x="636" y="605" width="120" height="40" as="geometry" />
        </mxCell>
        <mxCell id="H9k1ACJFIDgV3ZDi_W-s-23" value="No" style="rounded=0;html=1;jettySize=auto;orthogonalLoop=1;fontSize=11;endArrow=block;endFill=0;endSize=8;strokeWidth=1;shadow=0;labelBackgroundColor=none;edgeStyle=orthogonalEdgeStyle;entryX=0.5;entryY=0;entryDx=0;entryDy=0;" parent="WIyWlLk6GJQsqaUBKTNV-1" source="H9k1ACJFIDgV3ZDi_W-s-25" target="H9k1ACJFIDgV3ZDi_W-s-27" edge="1">
          <mxGeometry y="20" relative="1" as="geometry">
            <mxPoint as="offset" />
            <mxPoint x="203.5" y="1060" as="targetPoint" />
          </mxGeometry>
        </mxCell>
        <mxCell id="H9k1ACJFIDgV3ZDi_W-s-24" value="Yes" style="edgeStyle=orthogonalEdgeStyle;rounded=0;html=1;jettySize=auto;orthogonalLoop=1;fontSize=11;endArrow=block;endFill=0;endSize=8;strokeWidth=1;shadow=0;labelBackgroundColor=none;entryX=0.5;entryY=1;entryDx=0;entryDy=0;" parent="WIyWlLk6GJQsqaUBKTNV-1" source="H9k1ACJFIDgV3ZDi_W-s-25" target="H9k1ACJFIDgV3ZDi_W-s-19" edge="1">
          <mxGeometry y="10" relative="1" as="geometry">
            <mxPoint as="offset" />
            <mxPoint x="281" y="970" as="targetPoint" />
          </mxGeometry>
        </mxCell>
        <mxCell id="H9k1ACJFIDgV3ZDi_W-s-25" value="是否&lt;br&gt;需要校验&lt;span style=&quot;background-color: initial;&quot;&gt;？&lt;/span&gt;" style="rhombus;whiteSpace=wrap;html=1;shadow=0;fontFamily=Helvetica;fontSize=12;align=center;strokeWidth=1;spacing=6;spacingTop=-4;fillColor=#fff2cc;strokeColor=#d6b656;" parent="WIyWlLk6GJQsqaUBKTNV-1" vertex="1">
          <mxGeometry x="136" y="930" width="100" height="80" as="geometry" />
        </mxCell>
        <mxCell id="H9k1ACJFIDgV3ZDi_W-s-27" value="获取YhtServices.yhtAccessTokenPresent的校验结果" style="rounded=1;whiteSpace=wrap;html=1;fontSize=12;glass=0;strokeWidth=1;shadow=0;fillColor=#e1d5e7;strokeColor=#9673a6;" parent="WIyWlLk6GJQsqaUBKTNV-1" vertex="1">
          <mxGeometry x="71" y="1060" width="230" height="50" as="geometry" />
        </mxCell>
        <mxCell id="H9k1ACJFIDgV3ZDi_W-s-28" value="" style="rounded=0;html=1;jettySize=auto;orthogonalLoop=1;fontSize=11;endArrow=block;endFill=0;endSize=8;strokeWidth=1;shadow=0;labelBackgroundColor=none;edgeStyle=orthogonalEdgeStyle;" parent="WIyWlLk6GJQsqaUBKTNV-1" edge="1">
          <mxGeometry relative="1" as="geometry">
            <mxPoint x="185.57999999999998" y="880" as="sourcePoint" />
            <mxPoint x="185.57999999999998" y="930" as="targetPoint" />
            <Array as="points">
              <mxPoint x="185.57999999999998" y="910" />
              <mxPoint x="185.57999999999998" y="910" />
            </Array>
          </mxGeometry>
        </mxCell>
        <mxCell id="H9k1ACJFIDgV3ZDi_W-s-30" value="" style="rounded=0;html=1;jettySize=auto;orthogonalLoop=1;fontSize=11;endArrow=block;endFill=0;endSize=8;strokeWidth=1;shadow=0;labelBackgroundColor=none;edgeStyle=orthogonalEdgeStyle;exitX=1;exitY=0.5;exitDx=0;exitDy=0;entryX=0.5;entryY=0;entryDx=0;entryDy=0;" parent="WIyWlLk6GJQsqaUBKTNV-1" source="H9k1ACJFIDgV3ZDi_W-s-11" target="H9k1ACJFIDgV3ZDi_W-s-22" edge="1">
          <mxGeometry relative="1" as="geometry">
            <mxPoint x="406" y="510" as="sourcePoint" />
            <mxPoint x="696" y="600" as="targetPoint" />
            <Array as="points">
              <mxPoint x="696" y="510" />
            </Array>
          </mxGeometry>
        </mxCell>
        <mxCell id="H9k1ACJFIDgV3ZDi_W-s-32" value="" style="rounded=0;html=1;jettySize=auto;orthogonalLoop=1;fontSize=11;endArrow=block;endFill=0;endSize=8;strokeWidth=1;shadow=0;labelBackgroundColor=none;edgeStyle=orthogonalEdgeStyle;exitX=1;exitY=0.5;exitDx=0;exitDy=0;entryX=0.5;entryY=1;entryDx=0;entryDy=0;" parent="WIyWlLk6GJQsqaUBKTNV-1" source="H9k1ACJFIDgV3ZDi_W-s-19" target="H9k1ACJFIDgV3ZDi_W-s-22" edge="1">
          <mxGeometry relative="1" as="geometry">
            <mxPoint x="496" y="760" as="sourcePoint" />
            <mxPoint x="496" y="810" as="targetPoint" />
          </mxGeometry>
        </mxCell>
        <mxCell id="H9k1ACJFIDgV3ZDi_W-s-33" value="No" style="rounded=0;html=1;jettySize=auto;orthogonalLoop=1;fontSize=11;endArrow=block;endFill=0;endSize=8;strokeWidth=1;shadow=0;labelBackgroundColor=none;edgeStyle=orthogonalEdgeStyle;entryX=0.5;entryY=0;entryDx=0;entryDy=0;" parent="WIyWlLk6GJQsqaUBKTNV-1" source="H9k1ACJFIDgV3ZDi_W-s-35" target="H9k1ACJFIDgV3ZDi_W-s-37" edge="1">
          <mxGeometry y="20" relative="1" as="geometry">
            <mxPoint as="offset" />
            <mxPoint x="208.5" y="1310" as="targetPoint" />
          </mxGeometry>
        </mxCell>
        <mxCell id="H9k1ACJFIDgV3ZDi_W-s-34" value="Yes" style="edgeStyle=orthogonalEdgeStyle;rounded=0;html=1;jettySize=auto;orthogonalLoop=1;fontSize=11;endArrow=block;endFill=0;endSize=8;strokeWidth=1;shadow=0;labelBackgroundColor=none;" parent="WIyWlLk6GJQsqaUBKTNV-1" source="H9k1ACJFIDgV3ZDi_W-s-35" target="H9k1ACJFIDgV3ZDi_W-s-36" edge="1">
          <mxGeometry y="10" relative="1" as="geometry">
            <mxPoint as="offset" />
          </mxGeometry>
        </mxCell>
        <mxCell id="H9k1ACJFIDgV3ZDi_W-s-35" value="校验通过&lt;span style=&quot;background-color: initial;&quot;&gt;？&lt;/span&gt;" style="rhombus;whiteSpace=wrap;html=1;shadow=0;fontFamily=Helvetica;fontSize=12;align=center;strokeWidth=1;spacing=6;spacingTop=-4;fillColor=#fff2cc;strokeColor=#d6b656;" parent="WIyWlLk6GJQsqaUBKTNV-1" vertex="1">
          <mxGeometry x="136" y="1160" width="100" height="80" as="geometry" />
        </mxCell>
        <mxCell id="H9k1ACJFIDgV3ZDi_W-s-36" value="将SessionId存入CukooFilter" style="rounded=1;whiteSpace=wrap;html=1;fontSize=12;glass=0;strokeWidth=1;shadow=0;fillColor=#e1d5e7;strokeColor=#9673a6;" parent="WIyWlLk6GJQsqaUBKTNV-1" vertex="1">
          <mxGeometry x="286" y="1180" width="120" height="40" as="geometry" />
        </mxCell>
        <mxCell id="H9k1ACJFIDgV3ZDi_W-s-37" value="将SessionId从CukooFilter中删除" style="rounded=1;whiteSpace=wrap;html=1;fontSize=12;glass=0;strokeWidth=1;shadow=0;fillColor=#e1d5e7;strokeColor=#9673a6;" parent="WIyWlLk6GJQsqaUBKTNV-1" vertex="1">
          <mxGeometry x="71" y="1290" width="230" height="50" as="geometry" />
        </mxCell>
        <mxCell id="H9k1ACJFIDgV3ZDi_W-s-38" value="" style="rounded=0;html=1;jettySize=auto;orthogonalLoop=1;fontSize=11;endArrow=block;endFill=0;endSize=8;strokeWidth=1;shadow=0;labelBackgroundColor=none;edgeStyle=orthogonalEdgeStyle;" parent="WIyWlLk6GJQsqaUBKTNV-1" edge="1">
          <mxGeometry relative="1" as="geometry">
            <mxPoint x="185.71999999999997" y="1110" as="sourcePoint" />
            <mxPoint x="185.71999999999997" y="1160" as="targetPoint" />
            <Array as="points">
              <mxPoint x="185.71999999999997" y="1140" />
              <mxPoint x="185.71999999999997" y="1140" />
            </Array>
          </mxGeometry>
        </mxCell>
        <mxCell id="H9k1ACJFIDgV3ZDi_W-s-39" value="" style="rounded=0;html=1;jettySize=auto;orthogonalLoop=1;fontSize=11;endArrow=none;endFill=0;endSize=8;strokeWidth=1;shadow=0;labelBackgroundColor=none;edgeStyle=orthogonalEdgeStyle;exitX=1;exitY=0.5;exitDx=0;exitDy=0;" parent="WIyWlLk6GJQsqaUBKTNV-1" source="H9k1ACJFIDgV3ZDi_W-s-36" edge="1">
          <mxGeometry relative="1" as="geometry">
            <mxPoint x="536" y="870" as="sourcePoint" />
            <mxPoint x="696" y="740" as="targetPoint" />
          </mxGeometry>
        </mxCell>
        <mxCell id="H9k1ACJFIDgV3ZDi_W-s-40" value="" style="rounded=0;html=1;jettySize=auto;orthogonalLoop=1;fontSize=11;endArrow=none;endFill=0;endSize=8;strokeWidth=1;shadow=0;labelBackgroundColor=none;edgeStyle=orthogonalEdgeStyle;exitX=1;exitY=0.5;exitDx=0;exitDy=0;" parent="WIyWlLk6GJQsqaUBKTNV-1" source="H9k1ACJFIDgV3ZDi_W-s-37" edge="1">
          <mxGeometry relative="1" as="geometry">
            <mxPoint x="345.58000000000004" y="1320" as="sourcePoint" />
            <mxPoint x="696" y="660" as="targetPoint" />
          </mxGeometry>
        </mxCell>
      </root>
    </mxGraphModel>
  </diagram>
</mxfile>
